<?xml version="1.0" encoding="UTF-8"?>
<svg id="Layer_1" data-name="Layer 1" xmlns="http://www.w3.org/2000/svg" viewBox="0 0 245.62 245.61">
  <defs>
    <style>
      .cls-1, .cls-2 {
        fill: #fff;
      }

      .cls-3, .cls-4 {
        fill: none;
      }

      .cls-3, .cls-4, .cls-2 {
        stroke: #fff;
        stroke-miterlimit: 10;
      }

      .cls-4 {
        stroke-width: 5px;
      }
    </style>
  </defs>
  <text/>
  <g>
    <path class="cls-2" d="m55.17,154.48h-6.29v48.11h6.29c6.75,0,11.84-1.93,15.24-5.78,3.41-3.86,5.11-9.64,5.11-17.35,0-8.36-1.7-14.61-5.11-18.76-3.41-4.15-8.49-6.22-15.24-6.22Z"/>
    <path class="cls-2" d="m238.49,7.13c-4.11-4.1-9.77-6.63-16.02-6.63H23.15c-6.25,0-11.91,2.53-16.01,6.63C3.04,11.23.5,16.89.5,23.14v199.32c0,6.26,2.54,11.92,6.64,16.02s9.76,6.63,16.01,6.63h199.32c6.25,0,11.91-2.53,16.02-6.63,4.1-4.1,6.63-9.76,6.63-16.02V23.14c0-6.25-2.53-11.91-6.63-16.01ZM38.7,31.99h14.34l7.13,28.23h.74l7.12-28.23h14.34v65.7h-9.25v-54.04h-1.2l-7.13,27.21h-8.51l-7.12-27.21h-1.21v54.04h-9.25V31.99Zm16.47,179.4h-15.91v-65.7h15.91c20.05,0,30.07,11.26,30.07,33.78,0,21.28-10.02,31.92-30.07,31.92Zm179.16,12.24c0,5.91-4.78,10.69-10.69,10.69h-90.65c-5.9,0-10.68-4.78-10.68-10.69V21.97c0-5.9,4.78-10.68,10.68-10.68h90.65c5.91,0,10.69,4.78,10.69,10.68v201.66Z"/>
  </g>
  <path class="cls-3" d="m155.45,58.68c-6.19-.16-11.16-5.24-11.16-11.47s5.14-11.48,11.48-11.48,11.48,5.14,11.48,11.48-5.14,11.48-11.48,11.48c-.11,0-.21,0-.32-.01Z"/>
  <path class="cls-3" d="m196.81,35.73c0-6.34,5.14-11.48,11.48-11.48s11.48,5.14,11.48,11.48-5.14,11.48-11.48,11.48h0c-6.34-.01-11.47-5.14-11.47-11.48Z"/>
  <path class="cls-3" d="m208.29,24.25c6.34,0,11.48,5.14,11.48,11.48s-5.14,11.48-11.48,11.48h0c-6.34-.01-11.47-5.14-11.47-11.48s5.14-11.48,11.48-11.48Z"/>
  <path class="cls-3" d="m196.81,35.73c0-6.34,5.14-11.48,11.48-11.48s11.48,5.14,11.48,11.48-5.14,11.48-11.48,11.48h0c-6.34-.01-11.47-5.14-11.47-11.48Z"/>
  <path class="cls-1" d="m201.97,199.37c-5-5-10.01-10.01-15.01-15.01-.93-.93-2.62-.99-3.54,0s-.99,2.55,0,3.54c5,5,10.01,10.01,15.01,15.01.93.93,2.62.99,3.54,0s.99-2.55,0-3.54h0Z"/>
  <path class="cls-4" d="m219.77,209.3c0,6.34-5.14,11.48-11.48,11.48s-11.48-5.14-11.48-11.48c0-3.19,1.3-6.08,3.4-8.16,2.08-2.05,4.93-3.32,8.08-3.32,6.34,0,11.48,5.14,11.48,11.48Z"/>
  <path class="cls-1" d="m185.19,183.63h-77.22c-3.22,0-3.22,5,0,5h77.22c3.22,0,3.22-5,0-5h0Z"/>
  <path class="cls-1" d="m152.95,58.68c0,21.28,0,42.57,0,63.85h5v-.93c0-3.22-5-3.22-5,0v.93c0,3.22,5,3.22,5,0,0-21.28,0-42.57,0-63.85,0-3.22-5-3.22-5,0h0Z"/>
  <path class="cls-1" d="m153.42,120.71l-22.7,22.7c-2.28,2.28,1.26,5.81,3.54,3.54,7.57-7.57,15.13-15.13,22.7-22.7,2.28-2.28-1.26-5.81-3.54-3.54h0Z"/>
  <path class="cls-1" d="m132.5,142.67h-21.91c-3.22,0-3.22,5,0,5h21.91c3.22,0,3.22-5,0-5h0Z"/>
  <path class="cls-4" d="m167.25,47.21c0,6.34-5.14,11.48-11.48,11.48-.11,0-.21,0-.32-.01-6.19-.16-11.16-5.24-11.16-11.47s5.14-11.48,11.48-11.48,11.48,5.14,11.48,11.48Z"/>
  <path class="cls-1" d="m205.78,47.19v74.05c0,3.22,5,3.22,5,0V47.19c0-3.22-5-3.22-5,0h0Z"/>
  <path class="cls-1" d="m206.51,119.27c-13.14,13.14-26.28,26.28-39.41,39.41l-11.26,11.26c-2.28,2.28,1.26,5.81,3.54,3.54,13.14-13.14,26.28-26.28,39.41-39.41l11.26-11.26c2.28-2.28-1.26-5.81-3.54-3.54h0Z"/>
  <path class="cls-1" d="m157.6,169.21h-46.96c-3.22,0-3.22,5,0,5h46.96c3.22,0,3.22-5,0-5h0Z"/>
  <path class="cls-4" d="m219.77,35.73c0,6.34-5.14,11.48-11.48,11.48h0c-6.34-.01-11.47-5.14-11.47-11.48s5.14-11.48,11.48-11.48,11.48,5.14,11.48,11.48Z"/>
  <path class="cls-1" d="m122.72,130.34c3.85-3.85,7.7-7.7,11.54-11.54.93-.93.99-2.62,0-3.54s-2.55-.99-3.54,0c-3.85,3.85-7.7,7.7-11.54,11.54-.93.93-.99,2.62,0,3.54s2.55.99,3.54,0h0Z"/>
  <path class="cls-1" d="m135,117.13V38.67c0-3.22-5-3.22-5,0v78.46c0,3.22,5,3.22,5,0h0Z"/>
  <path class="cls-1" d="m134.26,36.66c-6.46-6.46-12.91-12.91-19.37-19.37-2.28-2.28-5.81,1.26-3.54,3.54,6.46,6.46,12.91,12.91,19.37,19.37,2.28,2.28,5.81-1.26,3.54-3.54h0Z"/>
  <path class="cls-1" d="m116.06,161.23c9.04,0,18.09,0,27.13,0,3.22,0,3.22-5,0-5-9.04,0-18.09,0-27.13,0-3.22,0-3.22,5,0,5h0Z"/>
  <path class="cls-1" d="m144.96,160.5c12.35-12.35,24.7-24.7,37.04-37.04,2.28-2.28-1.26-5.81-3.54-3.54-12.35,12.35-24.7,24.7-37.04,37.04-2.28,2.28,1.26,5.81,3.54,3.54h0Z"/>
  <path class="cls-1" d="m182.47,121.69V25.95c0-3.22-5-3.22-5,0v95.74c0,3.22,5,3.22,5,0h0Z"/>
  <path class="cls-1" d="m181.74,24.18c-5.3-5.3-10.61-10.61-15.91-15.91-.93-.93-2.62-.99-3.54,0s-.99,2.55,0,3.54c5.3,5.3,10.61,10.61,15.91,15.91.93.93,2.62.99,3.54,0s.99-2.55,0-3.54h0Z"/>
  <path class="cls-1" d="m154.55,205.62c-1.72-1.72-3.44-3.44-5.15-5.15-.45-.45-1.13-.73-1.77-.73s-1.35.27-1.77.73-.76,1.1-.73,1.77.25,1.29.73,1.77l5.15,5.15c.45.45,1.13.73,1.77.73s1.35-.27,1.77-.73.76-1.1.73-1.77-.25-1.29-.73-1.77h0Z"/>
  <path class="cls-1" d="m147.82,199.73c-13.37,0-26.74,0-40.11,0-3.22,0-3.22,5,0,5,13.37,0,26.74,0,40.11,0,3.22,0,3.22-5,0-5h0Z"/>
  <path class="cls-4" d="m172.41,215.47c0,6.34-5.14,11.48-11.48,11.48s-11.48-5.14-11.48-11.48c0-3.16,1.28-6.01,3.33-8.08,2.08-2.1,4.97-3.39,8.15-3.39,6.34,0,11.48,5.13,11.48,11.47Z"/>
  <path class="cls-1" d="m219.34,153.18c7.61-7.61,15.22-15.22,22.84-22.84,2.28-2.28-1.26-5.81-3.54-3.54-7.61,7.61-15.22,15.22-22.84,22.84-2.28,2.28,1.26,5.81,3.54,3.54h0Z"/>
  <path class="cls-4" d="m220.93,159.53c0,6.34-5.14,11.48-11.48,11.48s-11.48-5.14-11.48-11.48,5.14-11.48,11.48-11.48c3.17,0,6.04,1.28,8.12,3.36,2.07,2.08,3.36,4.95,3.36,8.12Z"/>
</svg>